# xmcd
#
# Track frame offsets: 
#        150
#        16223
#        30832
#        47855
#
# Disc length: 906 seconds
#
# Revision: 1
# Processed by: cddbd v1.5.1PL0 Copyright (c) Steve Scherf et al.
# Submitted via: ExactAudioCopy v0.95b1
#
DISCID=22038804
DTITLE=Brooke McClymont - I Don't Think, I Know
DYEAR=2002
DGENRE=Country
TTITLE0=I Don't Think, I Know (Album Mix)
TTITLE1=I Don't Think, I Know (Re-mix)
TTITLE2=I Don't Think, I Know (Acoustic Mix)
TTITLE3=Take You With Me
EXTD=
EXTT0=
EXTT1=
EXTT2=
EXTT3=
PLAYORDER=
